<svg width="1590" height="648" viewBox="0 0 1590 648" fill="none" xmlns="http://www.w3.org/2000/svg">
<g clip-path="url(#clip0_1013_211)">
<path fill-rule="evenodd" clip-rule="evenodd" d="M95.621 -283V-227.133L42 -227.133V-226.133L95.621 -226.133V-153.479H42V-152.479H95.621V-79.8239H42V-78.8239H95.621V-6.16989H42V-5.16989H95.621V67.4841H42V68.4841H95.621V141.139H42V142.139H95.621V214.793H42V215.793H95.621V288.447H42V289.447H95.621V345.316H96.621V289.447H169.277V345.316H170.277V289.447H242.927V345.316H243.927V289.447H316.577V345.316H317.577V289.447H390.237V345.316H391.237V289.447H463.897V345.316H464.897V289.447H537.547V345.316H538.547V289.447H611.197V345.316H612.197V289.447H670.317V288.447H612.197V215.793H670.317V214.793H612.197V142.139H670.317V141.139H612.197V68.4841H670.317V67.4841H612.197V-5.16989H670.317V-6.16989H612.197V-78.8239H670.317V-79.8239H612.197V-152.479H670.317V-153.479H612.197V-226.133H670.317V-227.133L612.197 -227.133V-283H611.197V-227.133H538.547V-283H537.547V-227.133L464.897 -227.133V-283H463.897V-227.133L391.237 -227.133V-283H390.237V-227.133L317.577 -227.133V-283H316.577V-227.133L243.927 -227.133V-283H242.927V-227.133L170.277 -227.133V-283H169.277V-227.133H96.621V-283H95.621ZM611.197 288.447V215.793H538.547V288.447H611.197ZM537.547 288.447V215.793H464.897V288.447H537.547ZM463.897 288.447V215.793H391.237V288.447H463.897ZM390.237 288.447V215.793H317.577V288.447H390.237ZM316.577 288.447V215.793H243.927V288.447H316.577ZM242.927 288.447V215.793H170.277V288.447H242.927ZM169.277 288.447V215.793H96.621V288.447H169.277ZM169.277 214.793H96.621V142.139H169.277V214.793ZM242.927 214.793H170.277V142.139H242.927V214.793ZM316.577 214.793H243.927V142.139H316.577V214.793ZM390.237 214.793H317.577V142.139H390.237V214.793ZM463.897 214.793H391.237V142.139H463.897V214.793ZM537.547 214.793H464.897V142.139H537.547V214.793ZM611.197 214.793H538.547V142.139H611.197V214.793ZM611.197 141.139V68.4841H538.547V141.139H611.197ZM537.547 141.139V68.4841H464.897V141.139H537.547ZM463.897 141.139V68.4841H391.237V141.139H463.897ZM390.237 141.139V68.4841H317.577V141.139H390.237ZM316.577 141.139V68.4841H243.927V141.139H316.577ZM242.927 141.139V68.4841H170.277V141.139H242.927ZM169.277 141.139V68.4841H96.621V141.139H169.277ZM169.277 67.4841H96.621V-5.16989H169.277V67.4841ZM242.927 67.4841H170.277V-5.16989H242.927V67.4841ZM316.577 67.4841H243.927V-5.16989H316.577V67.4841ZM390.237 67.4841H317.577V-5.16989H390.237V67.4841ZM463.897 67.4841H391.237V-5.16989H463.897V67.4841ZM537.547 67.4841H464.897V-5.16989H537.547V67.4841ZM611.197 67.4841H538.547V-5.16989H611.197V67.4841ZM611.197 -6.16989V-78.8239H538.547V-6.16989H611.197ZM537.547 -6.16989V-78.8239H464.897V-6.16989H537.547ZM463.897 -6.16989V-78.8239H391.237V-6.16989H463.897ZM390.237 -6.16989V-78.8239H317.577V-6.16989H390.237ZM316.577 -6.16989V-78.8239H243.927V-6.16989H316.577ZM242.927 -6.16989V-78.8239H170.277V-6.16989H242.927ZM169.277 -6.16989V-78.8239H96.621V-6.16989H169.277ZM169.277 -79.8239H96.621V-152.479H169.277V-79.8239ZM242.927 -79.8239H170.277V-152.479H242.927V-79.8239ZM316.577 -79.8239H243.927V-152.479H316.577V-79.8239ZM390.237 -79.8239H317.577V-152.479H390.237V-79.8239ZM463.897 -79.8239H391.237V-152.479H463.897V-79.8239ZM537.547 -79.8239H464.897V-152.479H537.547V-79.8239ZM611.197 -79.8239H538.547V-152.479H611.197V-79.8239ZM611.197 -153.479V-226.133H538.547V-153.479H611.197ZM537.547 -153.479V-226.133L464.897 -226.133V-153.479H537.547ZM463.897 -153.479V-226.133H391.237V-153.479H463.897ZM390.237 -153.479V-226.133L317.577 -226.133V-153.479H390.237ZM316.577 -153.479V-226.133H243.927V-153.479H316.577ZM242.927 -153.479V-226.133H170.277V-153.479H242.927ZM169.277 -153.479V-226.133H96.621V-153.479H169.277Z" fill="url(#paint0_radial_1013_211)"/>
<path fill-rule="evenodd" clip-rule="evenodd" d="M1256.62 -14V41.8672L1203 41.8672V42.8672L1256.62 42.8672V115.521H1203V116.521H1256.62V189.176H1203V190.176H1256.62V262.83H1203V263.83H1256.62V336.484H1203V337.484H1256.62V410.139H1203V411.139H1256.62V483.793H1203V484.793H1256.62V557.447H1203V558.447H1256.62V614.316H1257.62V558.447H1330.28V614.316H1331.28V558.447H1403.93V614.316H1404.93V558.447H1477.58V614.316H1478.58V558.447H1551.24V614.316H1552.24V558.447H1624.9V614.316H1625.9V558.447H1698.55V614.316H1699.55V558.447H1772.2V614.316H1773.2V558.447H1831.32V557.447H1773.2V484.793H1831.32V483.793H1773.2V411.139H1831.32V410.139H1773.2V337.484H1831.32V336.484H1773.2V263.83H1831.32V262.83H1773.2V190.176H1831.32V189.176H1773.2V116.521H1831.32V115.521H1773.2V42.8672H1831.32V41.8672L1773.2 41.8672V-14H1772.2V41.8672H1699.55V-14H1698.55V41.8672L1625.9 41.8672V-14H1624.9V41.8672L1552.24 41.8672V-14H1551.24V41.8672L1478.58 41.8672V-14H1477.58V41.8672L1404.93 41.8672V-14H1403.93V41.8672L1331.28 41.8672V-14H1330.28V41.8672H1257.62V-14H1256.62ZM1772.2 557.447V484.793H1699.55V557.447H1772.2ZM1698.55 557.447V484.793H1625.9V557.447H1698.55ZM1624.9 557.447V484.793H1552.24V557.447H1624.9ZM1551.24 557.447V484.793H1478.58V557.447H1551.24ZM1477.58 557.447V484.793H1404.93V557.447H1477.58ZM1403.93 557.447V484.793H1331.28V557.447H1403.93ZM1330.28 557.447V484.793H1257.62V557.447H1330.28ZM1330.28 483.793H1257.62V411.139H1330.28V483.793ZM1403.93 483.793H1331.28V411.139H1403.93V483.793ZM1477.58 483.793H1404.93V411.139H1477.58V483.793ZM1551.24 483.793H1478.58V411.139H1551.24V483.793ZM1624.9 483.793H1552.24V411.139H1624.9V483.793ZM1698.55 483.793H1625.9V411.139H1698.55V483.793ZM1772.2 483.793H1699.55V411.139H1772.2V483.793ZM1772.2 410.139V337.484H1699.55V410.139H1772.2ZM1698.55 410.139V337.484H1625.9V410.139H1698.55ZM1624.9 410.139V337.484H1552.24V410.139H1624.9ZM1551.24 410.139V337.484H1478.58V410.139H1551.24ZM1477.58 410.139V337.484H1404.93V410.139H1477.58ZM1403.93 410.139V337.484H1331.28V410.139H1403.93ZM1330.28 410.139V337.484H1257.62V410.139H1330.28ZM1330.28 336.484H1257.62V263.83H1330.28V336.484ZM1403.93 336.484H1331.28V263.83H1403.93V336.484ZM1477.58 336.484H1404.93V263.83H1477.58V336.484ZM1551.24 336.484H1478.58V263.83H1551.24V336.484ZM1624.9 336.484H1552.24V263.83H1624.9V336.484ZM1698.55 336.484H1625.9V263.83H1698.55V336.484ZM1772.2 336.484H1699.55V263.83H1772.2V336.484ZM1772.2 262.83V190.176H1699.55V262.83H1772.2ZM1698.55 262.83V190.176H1625.9V262.83H1698.55ZM1624.9 262.83V190.176H1552.24V262.83H1624.9ZM1551.24 262.83V190.176H1478.58V262.83H1551.24ZM1477.58 262.83V190.176H1404.93V262.83H1477.58ZM1403.93 262.83V190.176H1331.28V262.83H1403.93ZM1330.28 262.83V190.176H1257.62V262.83H1330.28ZM1330.28 189.176H1257.62V116.521H1330.28V189.176ZM1403.93 189.176H1331.28V116.521H1403.93V189.176ZM1477.58 189.176H1404.93V116.521H1477.58V189.176ZM1551.24 189.176H1478.58V116.521H1551.24V189.176ZM1624.9 189.176H1552.24V116.521H1624.9V189.176ZM1698.55 189.176H1625.9V116.521H1698.55V189.176ZM1772.2 189.176H1699.55V116.521H1772.2V189.176ZM1772.2 115.521V42.8672H1699.55V115.521H1772.2ZM1698.55 115.521V42.8672L1625.9 42.8672V115.521H1698.55ZM1624.9 115.521V42.8672H1552.24V115.521H1624.9ZM1551.24 115.521V42.8672L1478.58 42.8672V115.521H1551.24ZM1477.58 115.521V42.8672H1404.93V115.521H1477.58ZM1403.93 115.521V42.8672H1331.28V115.521H1403.93ZM1330.28 115.521V42.8672H1257.62V115.521H1330.28Z" fill="url(#paint1_radial_1013_211)"/>
<path fill-rule="evenodd" clip-rule="evenodd" d="M564.578 101.088V156.955H510.957V157.955H564.578V230.609H510.957V231.609H564.578V304.264H510.957V305.264H564.578V377.918H510.957V378.918H564.578V451.572H510.957V452.572H564.578V525.227H510.957V526.227H564.578V598.881H510.957V599.881H564.578V672.535H510.957V673.535H564.578V729.404H565.578V673.535H638.234V729.404H639.234V673.535H711.882V729.404H712.882V673.535H785.539V729.404H786.539V673.535H859.195V729.404H860.195V673.535H932.851V729.404H933.851V673.535H1006.5V729.404H1007.5V673.535H1080.15V729.404H1081.15V673.535H1139.27V672.535H1081.15V599.881H1139.27V598.881H1081.15V526.227H1139.27V525.227H1081.15V452.572H1139.27V451.572H1081.15V378.918H1139.27V377.918H1081.15V305.264H1139.27V304.264H1081.15V231.609H1139.27V230.609H1081.15V157.955H1139.27V156.955H1081.15V101.088H1080.15V156.955H1007.5V101.088H1006.5V156.955H933.851V101.088H932.851V156.955H860.195V101.088H859.195V156.955H786.539V101.088H785.539V156.955H712.882V101.088H711.882V156.955H639.234V101.088H638.234V156.955H565.578V101.088H564.578ZM1080.15 672.535V599.881H1007.5V672.535H1080.15ZM1006.5 672.535V599.881H933.851V672.535H1006.5ZM932.851 672.535V599.881H860.195V672.535H932.851ZM859.195 672.535V599.881H786.539V672.535H859.195ZM785.539 672.535V599.881H712.882V672.535H785.539ZM711.882 672.535V599.881H639.234V672.535H711.882ZM638.234 672.535V599.881H565.578V672.535H638.234ZM638.234 598.881H565.578V526.227H638.234V598.881ZM711.882 598.881H639.234V526.227H711.882V598.881ZM785.539 598.881H712.882V526.227H785.539V598.881ZM859.195 598.881H786.539V526.227H859.195V598.881ZM932.851 598.881H860.195V526.227H932.851V598.881ZM1006.5 598.881H933.851V526.227H1006.5V598.881ZM1080.15 598.881H1007.5V526.227H1080.15V598.881ZM1080.15 525.227V452.572H1007.5V525.227H1080.15ZM1006.5 525.227V452.572H933.851V525.227H1006.5ZM932.851 525.227V452.572H860.195V525.227H932.851ZM859.195 525.227V452.572H786.539V525.227H859.195ZM785.539 525.227V452.572H712.882V525.227H785.539ZM711.882 525.227V452.572H639.234V525.227H711.882ZM638.234 525.227V452.572H565.578V525.227H638.234ZM638.234 451.572H565.578V378.918H638.234V451.572ZM711.882 451.572H639.234V378.918H711.882V451.572ZM785.539 451.572H712.882V378.918H785.539V451.572ZM859.195 451.572H786.539V378.918H859.195V451.572ZM932.851 451.572H860.195V378.918H932.851V451.572ZM1006.5 451.572H933.851V378.918H1006.5V451.572ZM1080.15 451.572H1007.5V378.918H1080.15V451.572ZM1080.15 377.918V305.264H1007.5V377.918H1080.15ZM1006.5 377.918V305.264H933.851V377.918H1006.5ZM932.851 377.918V305.264H860.195V377.918H932.851ZM859.195 377.918V305.264H786.539V377.918H859.195ZM785.539 377.918V305.264H712.882V377.918H785.539ZM711.882 377.918V305.264H639.234V377.918H711.882ZM638.234 377.918V305.264H565.578V377.918H638.234ZM638.234 304.264H565.578V231.609H638.234V304.264ZM711.882 304.264H639.234V231.609H711.882V304.264ZM785.539 304.264H712.882V231.609H785.539V304.264ZM859.195 304.264H786.539V231.609H859.195V304.264ZM932.851 304.264H860.195V231.609H932.851V304.264ZM1006.5 304.264H933.851V231.609H1006.5V304.264ZM1080.15 304.264H1007.5V231.609H1080.15V304.264ZM1080.15 230.609V157.955H1007.5V230.609H1080.15ZM1006.5 230.609V157.955H933.851V230.609H1006.5ZM932.851 230.609V157.955H860.195V230.609H932.851ZM859.195 230.609V157.955H786.539V230.609H859.195ZM785.539 230.609V157.955H712.882V230.609H785.539ZM711.882 230.609V157.955H639.234V230.609H711.882ZM638.234 230.609V157.955H565.578V230.609H638.234Z" fill="url(#paint2_radial_1013_211)"/>
<g opacity="0.4" filter="url(#filter0_f_1013_211)">
<path d="M607.862 -422.733C466.212 -481.975 306.078 -421.673 250.191 -288.046C194.305 -154.419 263.829 1.9326 405.478 61.1741C547.128 120.416 707.262 60.1141 763.149 -73.5133C819.035 -207.141 749.511 -363.492 607.862 -422.733Z" fill="url(#paint3_linear_1013_211)" fill-opacity="0.23"/>
</g>
<g opacity="0.4" filter="url(#filter1_f_1013_211)">
<path d="M564.48 -173.949C702.816 -28.9081 883.596 23.2071 968.262 -57.5459C1052.93 -138.299 1009.42 -321.341 871.085 -466.381C732.749 -611.421 551.97 -663.537 467.303 -582.784C382.636 -502.031 426.144 -318.989 564.48 -173.949Z" fill="#0F27FF"/>
</g>
</g>
<defs>
<filter id="filter0_f_1013_211" x="36.877" y="-639.511" width="939.586" height="917.463" filterUnits="userSpaceOnUse" color-interpolation-filters="sRGB">
<feFlood flood-opacity="0" result="BackgroundImageFix"/>
<feBlend mode="normal" in="SourceGraphic" in2="BackgroundImageFix" result="shape"/>
<feGaussianBlur stdDeviation="97" result="effect1_foregroundBlur_1013_211"/>
</filter>
<filter id="filter1_f_1013_211" x="120.07" y="-924.799" width="1195.42" height="1209.27" filterUnits="userSpaceOnUse" color-interpolation-filters="sRGB">
<feFlood flood-opacity="0" result="BackgroundImageFix"/>
<feBlend mode="normal" in="SourceGraphic" in2="BackgroundImageFix" result="shape"/>
<feGaussianBlur stdDeviation="152" result="effect1_foregroundBlur_1013_211"/>
</filter>
<radialGradient id="paint0_radial_1013_211" cx="0" cy="0" r="1" gradientUnits="userSpaceOnUse" gradientTransform="translate(356.157 31.1581) rotate(90) scale(238.243 238.243)">
<stop stop-color="#8400FF" stop-opacity="0.29"/>
<stop offset="1" stop-color="#0568D9" stop-opacity="0"/>
</radialGradient>
<radialGradient id="paint1_radial_1013_211" cx="0" cy="0" r="1" gradientUnits="userSpaceOnUse" gradientTransform="translate(1517.16 300.158) rotate(90) scale(238.243 238.243)">
<stop stop-color="#8400FF" stop-opacity="0.29"/>
<stop offset="1" stop-color="#0568D9" stop-opacity="0"/>
</radialGradient>
<radialGradient id="paint2_radial_1013_211" cx="0" cy="0" r="1" gradientUnits="userSpaceOnUse" gradientTransform="translate(825.115 415.246) rotate(90) scale(238.243 238.243)">
<stop stop-color="#8244FF" stop-opacity="0.29"/>
<stop offset="1" stop-color="#8244FF" stop-opacity="0"/>
</radialGradient>
<linearGradient id="paint3_linear_1013_211" x1="179.372" y1="-68.6768" x2="488.231" y2="-507.025" gradientUnits="userSpaceOnUse">
<stop stop-color="#FF2E31"/>
<stop offset="0.271667" stop-color="#2650F9"/>
<stop offset="1" stop-color="#2693F9" stop-opacity="0"/>
</linearGradient>
<clipPath id="clip0_1013_211">
<rect width="1589.48" height="647.448" fill="white"/>
</clipPath>
</defs>
</svg>
