<svg width="1590" height="648" viewBox="0 0 1590 648" fill="none" xmlns="http://www.w3.org/2000/svg">
<g clip-path="url(#clip0_1013_211)">
<path fill-rule="evenodd" clip-rule="evenodd" d="M934.578 -204.912V-149.045L880.957 -149.045V-148.045L934.578 -148.045V-75.3906H880.957V-74.3906H934.578V-1.73599H880.957V-0.735992H934.578V71.918H880.957V72.918H934.578V145.572H880.957V146.572H934.578V219.227H880.957V220.227H934.578V292.881H880.957V293.881H934.578V366.535H880.957V367.535H934.578V423.404H935.578V367.535H1008.23V423.404H1009.23V367.535H1081.88V423.404H1082.88V367.535H1155.53V423.404H1156.53V367.535H1229.19V423.404H1230.19V367.535H1302.85V423.404H1303.85V367.535H1376.5V423.404H1377.5V367.535H1450.15V423.404H1451.15V367.535H1509.27V366.535H1451.15V293.881H1509.27V292.881H1451.15V220.227H1509.27V219.227H1451.15V146.572H1509.27V145.572H1451.15V72.918H1509.27V71.918H1451.15V-0.735992H1509.27V-1.73599H1451.15V-74.3906H1509.27V-75.3906H1451.15V-148.045H1509.27V-149.045L1451.15 -149.045V-204.912H1450.15V-149.045H1377.5V-204.912H1376.5V-149.045L1303.85 -149.045V-204.912H1302.85V-149.045L1230.19 -149.045V-204.912H1229.19V-149.045L1156.53 -149.045V-204.912H1155.53V-149.045L1082.88 -149.045V-204.912H1081.88V-149.045L1009.23 -149.045V-204.912H1008.23V-149.045H935.578V-204.912H934.578ZM1450.15 366.535V293.881H1377.5V366.535H1450.15ZM1376.5 366.535V293.881H1303.85V366.535H1376.5ZM1302.85 366.535V293.881H1230.19V366.535H1302.85ZM1229.19 366.535V293.881H1156.53V366.535H1229.19ZM1155.53 366.535V293.881H1082.88V366.535H1155.53ZM1081.88 366.535V293.881H1009.23V366.535H1081.88ZM1008.23 366.535V293.881H935.578V366.535H1008.23ZM1008.23 292.881H935.578V220.227H1008.23V292.881ZM1081.88 292.881H1009.23V220.227H1081.88V292.881ZM1155.53 292.881H1082.88V220.227H1155.53V292.881ZM1229.19 292.881H1156.53V220.227H1229.19V292.881ZM1302.85 292.881H1230.19V220.227H1302.85V292.881ZM1376.5 292.881H1303.85V220.227H1376.5V292.881ZM1450.15 292.881H1377.5V220.227H1450.15V292.881ZM1450.15 219.227V146.572H1377.5V219.227H1450.15ZM1376.5 219.227V146.572H1303.85V219.227H1376.5ZM1302.85 219.227V146.572H1230.19V219.227H1302.85ZM1229.19 219.227V146.572H1156.53V219.227H1229.19ZM1155.53 219.227V146.572H1082.88V219.227H1155.53ZM1081.88 219.227V146.572H1009.23V219.227H1081.88ZM1008.23 219.227V146.572H935.578V219.227H1008.23ZM1008.23 145.572H935.578V72.918H1008.23V145.572ZM1081.88 145.572H1009.23V72.918H1081.88V145.572ZM1155.53 145.572H1082.88V72.918H1155.53V145.572ZM1229.19 145.572H1156.53V72.918H1229.19V145.572ZM1302.85 145.572H1230.19V72.918H1302.85V145.572ZM1376.5 145.572H1303.85V72.918H1376.5V145.572ZM1450.15 145.572H1377.5V72.918H1450.15V145.572ZM1450.15 71.918V-0.735992H1377.5V71.918H1450.15ZM1376.5 71.918V-0.735992H1303.85V71.918H1376.5ZM1302.85 71.918V-0.735992H1230.19V71.918H1302.85ZM1229.19 71.918V-0.735992H1156.53V71.918H1229.19ZM1155.53 71.918V-0.735992H1082.88V71.918H1155.53ZM1081.88 71.918V-0.735992H1009.23V71.918H1081.88ZM1008.23 71.918V-0.735992H935.578V71.918H1008.23ZM1008.23 -1.73599H935.578V-74.3906H1008.23V-1.73599ZM1081.88 -1.73599H1009.23V-74.3906H1081.88V-1.73599ZM1155.53 -1.73599H1082.88V-74.3906H1155.53V-1.73599ZM1229.19 -1.73599H1156.53V-74.3906H1229.19V-1.73599ZM1302.85 -1.73599H1230.19V-74.3906H1302.85V-1.73599ZM1376.5 -1.73599H1303.85V-74.3906H1376.5V-1.73599ZM1450.15 -1.73599H1377.5V-74.3906H1450.15V-1.73599ZM1450.15 -75.3906V-148.045H1377.5V-75.3906H1450.15ZM1376.5 -75.3906V-148.045L1303.85 -148.045V-75.3906H1376.5ZM1302.85 -75.3906V-148.045H1230.19V-75.3906H1302.85ZM1229.19 -75.3906V-148.045L1156.53 -148.045V-75.3906H1229.19ZM1155.53 -75.3906V-148.045H1082.88V-75.3906H1155.53ZM1081.88 -75.3906V-148.045H1009.23V-75.3906H1081.88ZM1008.23 -75.3906V-148.045H935.578V-75.3906H1008.23Z" fill="url(#paint0_radial_1013_211)"/>
<path fill-rule="evenodd" clip-rule="evenodd" d="M564.578 101.088V156.955H510.957V157.955H564.578V230.609H510.957V231.609H564.578V304.264H510.957V305.264H564.578V377.918H510.957V378.918H564.578V451.572H510.957V452.572H564.578V525.227H510.957V526.227H564.578V598.881H510.957V599.881H564.578V672.535H510.957V673.535H564.578V729.404H565.578V673.535H638.234V729.404H639.234V673.535H711.882V729.404H712.882V673.535H785.539V729.404H786.539V673.535H859.195V729.404H860.195V673.535H932.851V729.404H933.851V673.535H1006.5V729.404H1007.5V673.535H1080.15V729.404H1081.15V673.535H1139.27V672.535H1081.15V599.881H1139.27V598.881H1081.15V526.227H1139.27V525.227H1081.15V452.572H1139.27V451.572H1081.15V378.918H1139.27V377.918H1081.15V305.264H1139.27V304.264H1081.15V231.609H1139.27V230.609H1081.15V157.955H1139.27V156.955H1081.15V101.088H1080.15V156.955H1007.5V101.088H1006.5V156.955H933.851V101.088H932.851V156.955H860.195V101.088H859.195V156.955H786.539V101.088H785.539V156.955H712.882V101.088H711.882V156.955H639.234V101.088H638.234V156.955H565.578V101.088H564.578ZM1080.15 672.535V599.881H1007.5V672.535H1080.15ZM1006.5 672.535V599.881H933.851V672.535H1006.5ZM932.851 672.535V599.881H860.195V672.535H932.851ZM859.195 672.535V599.881H786.539V672.535H859.195ZM785.539 672.535V599.881H712.882V672.535H785.539ZM711.882 672.535V599.881H639.234V672.535H711.882ZM638.234 672.535V599.881H565.578V672.535H638.234ZM638.234 598.881H565.578V526.227H638.234V598.881ZM711.882 598.881H639.234V526.227H711.882V598.881ZM785.539 598.881H712.882V526.227H785.539V598.881ZM859.195 598.881H786.539V526.227H859.195V598.881ZM932.851 598.881H860.195V526.227H932.851V598.881ZM1006.5 598.881H933.851V526.227H1006.5V598.881ZM1080.15 598.881H1007.5V526.227H1080.15V598.881ZM1080.15 525.227V452.572H1007.5V525.227H1080.15ZM1006.5 525.227V452.572H933.851V525.227H1006.5ZM932.851 525.227V452.572H860.195V525.227H932.851ZM859.195 525.227V452.572H786.539V525.227H859.195ZM785.539 525.227V452.572H712.882V525.227H785.539ZM711.882 525.227V452.572H639.234V525.227H711.882ZM638.234 525.227V452.572H565.578V525.227H638.234ZM638.234 451.572H565.578V378.918H638.234V451.572ZM711.882 451.572H639.234V378.918H711.882V451.572ZM785.539 451.572H712.882V378.918H785.539V451.572ZM859.195 451.572H786.539V378.918H859.195V451.572ZM932.851 451.572H860.195V378.918H932.851V451.572ZM1006.5 451.572H933.851V378.918H1006.5V451.572ZM1080.15 451.572H1007.5V378.918H1080.15V451.572ZM1080.15 377.918V305.264H1007.5V377.918H1080.15ZM1006.5 377.918V305.264H933.851V377.918H1006.5ZM932.851 377.918V305.264H860.195V377.918H932.851ZM859.195 377.918V305.264H786.539V377.918H859.195ZM785.539 377.918V305.264H712.882V377.918H785.539ZM711.882 377.918V305.264H639.234V377.918H711.882ZM638.234 377.918V305.264H565.578V377.918H638.234ZM638.234 304.264H565.578V231.609H638.234V304.264ZM711.882 304.264H639.234V231.609H711.882V304.264ZM785.539 304.264H712.882V231.609H785.539V304.264ZM859.195 304.264H786.539V231.609H859.195V304.264ZM932.851 304.264H860.195V231.609H932.851V304.264ZM1006.5 304.264H933.851V231.609H1006.5V304.264ZM1080.15 304.264H1007.5V231.609H1080.15V304.264ZM1080.15 230.609V157.955H1007.5V230.609H1080.15ZM1006.5 230.609V157.955H933.851V230.609H1006.5ZM932.851 230.609V157.955H860.195V230.609H932.851ZM859.195 230.609V157.955H786.539V230.609H859.195ZM785.539 230.609V157.955H712.882V230.609H785.539ZM711.882 230.609V157.955H639.234V230.609H711.882ZM638.234 230.609V157.955H565.578V230.609H638.234Z" fill="url(#paint1_radial_1013_211)"/>
<g opacity="0.4" filter="url(#filter0_f_1013_211)">
<path d="M1270.87 -301.732C1129.22 -360.974 969.082 -300.672 913.195 -167.045C857.309 -33.4176 926.833 122.934 1068.48 182.175C1210.13 241.417 1370.27 181.115 1426.15 47.4877C1482.04 -86.1397 1412.51 -242.491 1270.87 -301.732Z" fill="url(#paint2_linear_1013_211)" fill-opacity="0.23"/>
</g>
<g opacity="0.4" filter="url(#filter1_f_1013_211)">
<path d="M564.48 -173.949C702.816 -28.9081 883.596 23.2071 968.262 -57.5459C1052.93 -138.299 1009.42 -321.341 871.085 -466.381C732.749 -611.421 551.97 -663.537 467.303 -582.784C382.636 -502.031 426.144 -318.989 564.48 -173.949Z" fill="#0F27FF"/>
</g>
</g>
<defs>
<filter id="filter0_f_1013_211" x="699.881" y="-518.51" width="939.586" height="917.463" filterUnits="userSpaceOnUse" color-interpolation-filters="sRGB">
<feFlood flood-opacity="0" result="BackgroundImageFix"/>
<feBlend mode="normal" in="SourceGraphic" in2="BackgroundImageFix" result="shape"/>
<feGaussianBlur stdDeviation="97" result="effect1_foregroundBlur_1013_211"/>
</filter>
<filter id="filter1_f_1013_211" x="120.07" y="-924.799" width="1195.42" height="1209.27" filterUnits="userSpaceOnUse" color-interpolation-filters="sRGB">
<feFlood flood-opacity="0" result="BackgroundImageFix"/>
<feBlend mode="normal" in="SourceGraphic" in2="BackgroundImageFix" result="shape"/>
<feGaussianBlur stdDeviation="152" result="effect1_foregroundBlur_1013_211"/>
</filter>
<radialGradient id="paint0_radial_1013_211" cx="0" cy="0" r="1" gradientUnits="userSpaceOnUse" gradientTransform="translate(1195.11 109.246) rotate(90) scale(238.243 238.243)">
<stop stop-color="#8400FF" stop-opacity="0.29"/>
<stop offset="1" stop-color="#0568D9" stop-opacity="0"/>
</radialGradient>
<radialGradient id="paint1_radial_1013_211" cx="0" cy="0" r="1" gradientUnits="userSpaceOnUse" gradientTransform="translate(825.115 415.246) rotate(90) scale(238.243 238.243)">
<stop stop-color="#8244FF" stop-opacity="0.29"/>
<stop offset="1" stop-color="#8244FF" stop-opacity="0"/>
</radialGradient>
<linearGradient id="paint2_linear_1013_211" x1="842.376" y1="52.3241" x2="1151.23" y2="-386.024" gradientUnits="userSpaceOnUse">
<stop stop-color="#FF2E31"/>
<stop offset="0.271667" stop-color="#2650F9"/>
<stop offset="1" stop-color="#2693F9" stop-opacity="0"/>
</linearGradient>
<clipPath id="clip0_1013_211">
<rect width="1589.48" height="647.448" fill="white"/>
</clipPath>
</defs>
</svg>
