<svg width="1590" height="648" viewBox="0 0 1590 648" fill="none" xmlns="http://www.w3.org/2000/svg">
<g clip-path="url(#clip0_1013_211)">
<path fill-rule="evenodd" clip-rule="evenodd" d="M1014.62 -283V-227.133L961 -227.133V-226.133L1014.62 -226.133V-153.479H961V-152.479H1014.62V-79.8239H961V-78.8239H1014.62V-6.16989H961V-5.16989H1014.62V67.4841H961V68.4841H1014.62V141.139H961V142.139H1014.62V214.793H961V215.793H1014.62V288.447H961V289.447H1014.62V345.316H1015.62V289.447H1088.28V345.316H1089.28V289.447H1161.93V345.316H1162.93V289.447H1235.58V345.316H1236.58V289.447H1309.24V345.316H1310.24V289.447H1382.9V345.316H1383.9V289.447H1456.55V345.316H1457.55V289.447H1530.2V345.316H1531.2V289.447H1589.32V288.447H1531.2V215.793H1589.32V214.793H1531.2V142.139H1589.32V141.139H1531.2V68.4841H1589.32V67.4841H1531.2V-5.16989H1589.32V-6.16989H1531.2V-78.8239H1589.32V-79.8239H1531.2V-152.479H1589.32V-153.479H1531.2V-226.133H1589.32V-227.133L1531.2 -227.133V-283H1530.2V-227.133H1457.55V-283H1456.55V-227.133L1383.9 -227.133V-283H1382.9V-227.133L1310.24 -227.133V-283H1309.24V-227.133L1236.58 -227.133V-283H1235.58V-227.133L1162.93 -227.133V-283H1161.93V-227.133L1089.28 -227.133V-283H1088.28V-227.133H1015.62V-283H1014.62ZM1530.2 288.447V215.793H1457.55V288.447H1530.2ZM1456.55 288.447V215.793H1383.9V288.447H1456.55ZM1382.9 288.447V215.793H1310.24V288.447H1382.9ZM1309.24 288.447V215.793H1236.58V288.447H1309.24ZM1235.58 288.447V215.793H1162.93V288.447H1235.58ZM1161.93 288.447V215.793H1089.28V288.447H1161.93ZM1088.28 288.447V215.793H1015.62V288.447H1088.28ZM1088.28 214.793H1015.62V142.139H1088.28V214.793ZM1161.93 214.793H1089.28V142.139H1161.93V214.793ZM1235.58 214.793H1162.93V142.139H1235.58V214.793ZM1309.24 214.793H1236.58V142.139H1309.24V214.793ZM1382.9 214.793H1310.24V142.139H1382.9V214.793ZM1456.55 214.793H1383.9V142.139H1456.55V214.793ZM1530.2 214.793H1457.55V142.139H1530.2V214.793ZM1530.2 141.139V68.4841H1457.55V141.139H1530.2ZM1456.55 141.139V68.4841H1383.9V141.139H1456.55ZM1382.9 141.139V68.4841H1310.24V141.139H1382.9ZM1309.24 141.139V68.4841H1236.58V141.139H1309.24ZM1235.58 141.139V68.4841H1162.93V141.139H1235.58ZM1161.93 141.139V68.4841H1089.28V141.139H1161.93ZM1088.28 141.139V68.4841H1015.62V141.139H1088.28ZM1088.28 67.4841H1015.62V-5.16989H1088.28V67.4841ZM1161.93 67.4841H1089.28V-5.16989H1161.93V67.4841ZM1235.58 67.4841H1162.93V-5.16989H1235.58V67.4841ZM1309.24 67.4841H1236.58V-5.16989H1309.24V67.4841ZM1382.9 67.4841H1310.24V-5.16989H1382.9V67.4841ZM1456.55 67.4841H1383.9V-5.16989H1456.55V67.4841ZM1530.2 67.4841H1457.55V-5.16989H1530.2V67.4841ZM1530.2 -6.16989V-78.8239H1457.55V-6.16989H1530.2ZM1456.55 -6.16989V-78.8239H1383.9V-6.16989H1456.55ZM1382.9 -6.16989V-78.8239H1310.24V-6.16989H1382.9ZM1309.24 -6.16989V-78.8239H1236.58V-6.16989H1309.24ZM1235.58 -6.16989V-78.8239H1162.93V-6.16989H1235.58ZM1161.93 -6.16989V-78.8239H1089.28V-6.16989H1161.93ZM1088.28 -6.16989V-78.8239H1015.62V-6.16989H1088.28ZM1088.28 -79.8239H1015.62V-152.479H1088.28V-79.8239ZM1161.93 -79.8239H1089.28V-152.479H1161.93V-79.8239ZM1235.58 -79.8239H1162.93V-152.479H1235.58V-79.8239ZM1309.24 -79.8239H1236.58V-152.479H1309.24V-79.8239ZM1382.9 -79.8239H1310.24V-152.479H1382.9V-79.8239ZM1456.55 -79.8239H1383.9V-152.479H1456.55V-79.8239ZM1530.2 -79.8239H1457.55V-152.479H1530.2V-79.8239ZM1530.2 -153.479V-226.133H1457.55V-153.479H1530.2ZM1456.55 -153.479V-226.133L1383.9 -226.133V-153.479H1456.55ZM1382.9 -153.479V-226.133H1310.24V-153.479H1382.9ZM1309.24 -153.479V-226.133L1236.58 -226.133V-153.479H1309.24ZM1235.58 -153.479V-226.133H1162.93V-153.479H1235.58ZM1161.93 -153.479V-226.133H1089.28V-153.479H1161.93ZM1088.28 -153.479V-226.133H1015.62V-153.479H1088.28Z" fill="url(#paint0_radial_1013_211)"/>
<path fill-rule="evenodd" clip-rule="evenodd" d="M564.578 101.088V156.955H510.957V157.955H564.578V230.609H510.957V231.609H564.578V304.264H510.957V305.264H564.578V377.918H510.957V378.918H564.578V451.572H510.957V452.572H564.578V525.227H510.957V526.227H564.578V598.881H510.957V599.881H564.578V672.535H510.957V673.535H564.578V729.404H565.578V673.535H638.234V729.404H639.234V673.535H711.882V729.404H712.882V673.535H785.539V729.404H786.539V673.535H859.195V729.404H860.195V673.535H932.851V729.404H933.851V673.535H1006.5V729.404H1007.5V673.535H1080.15V729.404H1081.15V673.535H1139.27V672.535H1081.15V599.881H1139.27V598.881H1081.15V526.227H1139.27V525.227H1081.15V452.572H1139.27V451.572H1081.15V378.918H1139.27V377.918H1081.15V305.264H1139.27V304.264H1081.15V231.609H1139.27V230.609H1081.15V157.955H1139.27V156.955H1081.15V101.088H1080.15V156.955H1007.5V101.088H1006.5V156.955H933.851V101.088H932.851V156.955H860.195V101.088H859.195V156.955H786.539V101.088H785.539V156.955H712.882V101.088H711.882V156.955H639.234V101.088H638.234V156.955H565.578V101.088H564.578ZM1080.15 672.535V599.881H1007.5V672.535H1080.15ZM1006.5 672.535V599.881H933.851V672.535H1006.5ZM932.851 672.535V599.881H860.195V672.535H932.851ZM859.195 672.535V599.881H786.539V672.535H859.195ZM785.539 672.535V599.881H712.882V672.535H785.539ZM711.882 672.535V599.881H639.234V672.535H711.882ZM638.234 672.535V599.881H565.578V672.535H638.234ZM638.234 598.881H565.578V526.227H638.234V598.881ZM711.882 598.881H639.234V526.227H711.882V598.881ZM785.539 598.881H712.882V526.227H785.539V598.881ZM859.195 598.881H786.539V526.227H859.195V598.881ZM932.851 598.881H860.195V526.227H932.851V598.881ZM1006.5 598.881H933.851V526.227H1006.5V598.881ZM1080.15 598.881H1007.5V526.227H1080.15V598.881ZM1080.15 525.227V452.572H1007.5V525.227H1080.15ZM1006.5 525.227V452.572H933.851V525.227H1006.5ZM932.851 525.227V452.572H860.195V525.227H932.851ZM859.195 525.227V452.572H786.539V525.227H859.195ZM785.539 525.227V452.572H712.882V525.227H785.539ZM711.882 525.227V452.572H639.234V525.227H711.882ZM638.234 525.227V452.572H565.578V525.227H638.234ZM638.234 451.572H565.578V378.918H638.234V451.572ZM711.882 451.572H639.234V378.918H711.882V451.572ZM785.539 451.572H712.882V378.918H785.539V451.572ZM859.195 451.572H786.539V378.918H859.195V451.572ZM932.851 451.572H860.195V378.918H932.851V451.572ZM1006.5 451.572H933.851V378.918H1006.5V451.572ZM1080.15 451.572H1007.5V378.918H1080.15V451.572ZM1080.15 377.918V305.264H1007.5V377.918H1080.15ZM1006.5 377.918V305.264H933.851V377.918H1006.5ZM932.851 377.918V305.264H860.195V377.918H932.851ZM859.195 377.918V305.264H786.539V377.918H859.195ZM785.539 377.918V305.264H712.882V377.918H785.539ZM711.882 377.918V305.264H639.234V377.918H711.882ZM638.234 377.918V305.264H565.578V377.918H638.234ZM638.234 304.264H565.578V231.609H638.234V304.264ZM711.882 304.264H639.234V231.609H711.882V304.264ZM785.539 304.264H712.882V231.609H785.539V304.264ZM859.195 304.264H786.539V231.609H859.195V304.264ZM932.851 304.264H860.195V231.609H932.851V304.264ZM1006.5 304.264H933.851V231.609H1006.5V304.264ZM1080.15 304.264H1007.5V231.609H1080.15V304.264ZM1080.15 230.609V157.955H1007.5V230.609H1080.15ZM1006.5 230.609V157.955H933.851V230.609H1006.5ZM932.851 230.609V157.955H860.195V230.609H932.851ZM859.195 230.609V157.955H786.539V230.609H859.195ZM785.539 230.609V157.955H712.882V230.609H785.539ZM711.882 230.609V157.955H639.234V230.609H711.882ZM638.234 230.609V157.955H565.578V230.609H638.234Z" fill="url(#paint1_radial_1013_211)"/>
<g opacity="0.4" filter="url(#filter0_f_1013_211)">
<path d="M607.862 -422.733C466.212 -481.975 306.078 -421.673 250.191 -288.046C194.305 -154.419 263.829 1.9326 405.478 61.1741C547.128 120.416 707.262 60.1141 763.149 -73.5133C819.035 -207.141 749.511 -363.492 607.862 -422.733Z" fill="url(#paint2_linear_1013_211)" fill-opacity="0.23"/>
</g>
<g opacity="0.4" filter="url(#filter1_f_1013_211)">
<path d="M564.48 -173.949C702.816 -28.9081 883.596 23.2071 968.262 -57.5459C1052.93 -138.299 1009.42 -321.341 871.085 -466.381C732.749 -611.421 551.97 -663.537 467.303 -582.784C382.636 -502.031 426.144 -318.989 564.48 -173.949Z" fill="#0F27FF"/>
</g>
<path fill-rule="evenodd" clip-rule="evenodd" d="M-260.379 10V65.8672L-314 65.8672V66.8672L-260.379 66.8672V139.521H-314V140.521H-260.379V213.176H-314V214.176H-260.379V286.83H-314V287.83H-260.379V360.484H-314V361.484H-260.379V434.139H-314V435.139H-260.379V507.793H-314V508.793H-260.379V581.447H-314V582.447H-260.379V638.316H-259.379V582.447H-186.723V638.316H-185.723V582.447H-113.073V638.316H-112.073V582.447H-39.423V638.316H-38.423V582.447H34.2369V638.316H35.2369V582.447H107.897V638.316H108.897V582.447H181.547V638.316H182.547V582.447H255.197V638.316H256.197V582.447H314.317V581.447H256.197V508.793H314.317V507.793H256.197V435.139H314.317V434.139H256.197V361.484H314.317V360.484H256.197V287.83H314.317V286.83H256.197V214.176H314.317V213.176H256.197V140.521H314.317V139.521H256.197V66.8672H314.317V65.8672L256.197 65.8672V10H255.197V65.8672H182.547V10H181.547V65.8672L108.897 65.8672V10H107.897V65.8672L35.2369 65.8672V10H34.2369V65.8672L-38.423 65.8672V10H-39.423V65.8672L-112.073 65.8672V10H-113.073V65.8672L-185.723 65.8672V10H-186.723V65.8672H-259.379V10H-260.379ZM255.197 581.447V508.793H182.547V581.447H255.197ZM181.547 581.447V508.793H108.897V581.447H181.547ZM107.897 581.447V508.793H35.2369V581.447H107.897ZM34.2369 581.447V508.793H-38.423V581.447H34.2369ZM-39.423 581.447V508.793H-112.073V581.447H-39.423ZM-113.073 581.447V508.793H-185.723V581.447H-113.073ZM-186.723 581.447V508.793H-259.379V581.447H-186.723ZM-186.723 507.793H-259.379V435.139H-186.723V507.793ZM-113.073 507.793H-185.723V435.139H-113.073V507.793ZM-39.423 507.793H-112.073V435.139H-39.423V507.793ZM34.2369 507.793H-38.423V435.139H34.2369V507.793ZM107.897 507.793H35.2369V435.139H107.897V507.793ZM181.547 507.793H108.897V435.139H181.547V507.793ZM255.197 507.793H182.547V435.139H255.197V507.793ZM255.197 434.139V361.484H182.547V434.139H255.197ZM181.547 434.139V361.484H108.897V434.139H181.547ZM107.897 434.139V361.484H35.2369V434.139H107.897ZM34.2369 434.139V361.484H-38.423V434.139H34.2369ZM-39.423 434.139V361.484H-112.073V434.139H-39.423ZM-113.073 434.139V361.484H-185.723V434.139H-113.073ZM-186.723 434.139V361.484H-259.379V434.139H-186.723ZM-186.723 360.484H-259.379V287.83H-186.723V360.484ZM-113.073 360.484H-185.723V287.83H-113.073V360.484ZM-39.423 360.484H-112.073V287.83H-39.423V360.484ZM34.2369 360.484H-38.423V287.83H34.2369V360.484ZM107.897 360.484H35.2369V287.83H107.897V360.484ZM181.547 360.484H108.897V287.83H181.547V360.484ZM255.197 360.484H182.547V287.83H255.197V360.484ZM255.197 286.83V214.176H182.547V286.83H255.197ZM181.547 286.83V214.176H108.897V286.83H181.547ZM107.897 286.83V214.176H35.2369V286.83H107.897ZM34.2369 286.83V214.176H-38.423V286.83H34.2369ZM-39.423 286.83V214.176H-112.073V286.83H-39.423ZM-113.073 286.83V214.176H-185.723V286.83H-113.073ZM-186.723 286.83V214.176H-259.379V286.83H-186.723ZM-186.723 213.176H-259.379V140.521H-186.723V213.176ZM-113.073 213.176H-185.723V140.521H-113.073V213.176ZM-39.423 213.176H-112.073V140.521H-39.423V213.176ZM34.2369 213.176H-38.423V140.521H34.2369V213.176ZM107.897 213.176H35.2369V140.521H107.897V213.176ZM181.547 213.176H108.897V140.521H181.547V213.176ZM255.197 213.176H182.547V140.521H255.197V213.176ZM255.197 139.521V66.8672H182.547V139.521H255.197ZM181.547 139.521V66.8672L108.897 66.8672V139.521H181.547ZM107.897 139.521V66.8672H35.2369V139.521H107.897ZM34.2369 139.521V66.8672L-38.423 66.8672V139.521H34.2369ZM-39.423 139.521V66.8672H-112.073V139.521H-39.423ZM-113.073 139.521V66.8672H-185.723V139.521H-113.073ZM-186.723 139.521V66.8672H-259.379V139.521H-186.723Z" fill="url(#paint3_radial_1013_211)"/>
</g>
<defs>
<filter id="filter0_f_1013_211" x="36.877" y="-639.511" width="939.586" height="917.463" filterUnits="userSpaceOnUse" color-interpolation-filters="sRGB">
<feFlood flood-opacity="0" result="BackgroundImageFix"/>
<feBlend mode="normal" in="SourceGraphic" in2="BackgroundImageFix" result="shape"/>
<feGaussianBlur stdDeviation="97" result="effect1_foregroundBlur_1013_211"/>
</filter>
<filter id="filter1_f_1013_211" x="120.07" y="-924.799" width="1195.42" height="1209.27" filterUnits="userSpaceOnUse" color-interpolation-filters="sRGB">
<feFlood flood-opacity="0" result="BackgroundImageFix"/>
<feBlend mode="normal" in="SourceGraphic" in2="BackgroundImageFix" result="shape"/>
<feGaussianBlur stdDeviation="152" result="effect1_foregroundBlur_1013_211"/>
</filter>
<radialGradient id="paint0_radial_1013_211" cx="0" cy="0" r="1" gradientUnits="userSpaceOnUse" gradientTransform="translate(1275.16 31.1581) rotate(90) scale(238.243 238.243)">
<stop stop-color="#8400FF" stop-opacity="0.29"/>
<stop offset="1" stop-color="#0568D9" stop-opacity="0"/>
</radialGradient>
<radialGradient id="paint1_radial_1013_211" cx="0" cy="0" r="1" gradientUnits="userSpaceOnUse" gradientTransform="translate(825.115 415.246) rotate(90) scale(238.243 238.243)">
<stop stop-color="#8244FF" stop-opacity="0.29"/>
<stop offset="1" stop-color="#8244FF" stop-opacity="0"/>
</radialGradient>
<linearGradient id="paint2_linear_1013_211" x1="179.372" y1="-68.6768" x2="488.231" y2="-507.025" gradientUnits="userSpaceOnUse">
<stop stop-color="#FF2E31"/>
<stop offset="0.271667" stop-color="#2650F9"/>
<stop offset="1" stop-color="#2693F9" stop-opacity="0"/>
</linearGradient>
<radialGradient id="paint3_radial_1013_211" cx="0" cy="0" r="1" gradientUnits="userSpaceOnUse" gradientTransform="translate(0.156975 324.158) rotate(90) scale(238.243 238.243)">
<stop stop-color="#8400FF" stop-opacity="0.29"/>
<stop offset="1" stop-color="#0568D9" stop-opacity="0"/>
</radialGradient>
<clipPath id="clip0_1013_211">
<rect width="1589.48" height="647.448" fill="white"/>
</clipPath>
</defs>
</svg>
