<svg width="446" height="389" viewBox="0 0 446 389" fill="none" xmlns="http://www.w3.org/2000/svg">
<path d="M381 237H389L397 242L400 248V258L395 273L388 289L378 306L369 318L360 329L348 341L334 352L325 359L307 369L289 377L270 383L251 387L228 389H215L195 387L170 382L149 375L132 367L117 358L103 348L97 341L96 339V329L100 323L104 320L111 319L119 322L134 332L148 340L166 348L186 354L205 357H233L255 354L273 349L290 342L307 332L318 324L324 319H326L327 316L335 309L347 294L356 280L363 266L370 247L375 240L381 237Z" fill="#FCFCFC"/>
<path d="M209 24H235L257 27L280 33L296 39L315 49L329 59L333 64L334 67V78L328 85L323 87H316L309 84L294 74L275 65L256 59L240 56L231 55H212L193 57L173 62L153 70L143 75L128 85L115 95L101 109L93 119L84 133L75 150L66 178L62 183L57 186H48L43 183L38 174V164L43 148L49 133L58 116L69 100L78 89L83 83H85L87 79L100 67L119 53L139 42L162 33L181 28L199 25L209 24Z" fill="#FCFCFC"/>
<path d="M228 138H237L243 142L247 147L253 161L267 197L271 207L274 209L276 202L286 183L300 156L307 146L313 142H324L330 146L334 152L336 160L337 200V267L332 275L326 278L318 276L313 272L310 265V195L309 193L301 209L280 250L276 256L269 259L264 257L259 251L243 206L238 192V190H236L233 215L228 254L225 264L220 269L218 270H210L204 266L201 262L200 259V248L207 206L216 155L220 144L228 138Z" fill="#FBFBFC"/>
<path d="M135 134H154L172 140L182 146L185 150L186 153V160L181 166L174 167L157 161L151 159H137L129 163L126 169L127 177L128 180L133 182L146 186L163 191L172 197L177 202L182 210L184 216V231L180 242L172 252L163 258L154 261L144 262L130 260L117 255L103 247L96 239L95 236V229L101 223H109L131 235L138 237H149L155 234L159 229V220L156 215L147 211L126 206L114 200L106 192L103 187L101 179V165L104 156L110 148L118 141L128 136L135 134Z" fill="#FBFBFB"/>
<path d="M361 101H368L375 105L385 119L393 136L400 156L405 176L406 189L403 196L397 201L389 203L381 200L377 195L374 187L371 172L364 151L354 131L350 125L349 122V112L352 106L357 102L361 101Z" fill="#FBFBFC"/>
<path d="M406 0H419L427 4L432 8L438 18L439 22V32L435 43L429 50L419 55H405L397 54L388 65L381 70L379 73H377L375 77L371 81H369L368 84L360 91L355 95H349L347 89L353 80L361 73L389 45L385 35L384 32V24L388 14L394 6L402 1L406 0Z" fill="#FBFBFC"/>
<path d="M45 221H56L62 226L66 236L73 260L80 276L86 288L87 297L84 304L78 308L70 309L62 304L54 293L45 274L40 260L36 245L35 236L38 227L45 221Z" fill="#FBFBFB"/>
<path d="M80 317L84 320L83 327L77 333H75L74 336L66 343L62 348L55 354L48 362L45 377L39 384L33 387H24L16 383L12 378L9 371V363L12 356L17 351L24 348L33 349L38 352L43 351L76 318L80 317Z" fill="#FAFAFB"/>
<path d="M426 207H436L442 211L446 217V227L442 234L434 238L425 237L420 234L416 227V217L420 211L426 207Z" fill="#FAFAFA"/>
<path d="M8 188H18L24 192L28 200L27 208L21 215L11 216L5 213L1 208L0 205V197L3 191L8 188Z" fill="#F9F9FA"/>
<path d="M397 51L403 53L400 54L396 55L388 65L381 70L379 73H377L375 77L371 81H369L368 84L363 87L365 83L372 77L377 71H379L381 67L388 61L395 53L397 51Z" fill="#D5D9DC"/>
<path d="M383 51V54L351 86L350 84L355 79L383 51Z" fill="#E5E7E9"/>
</svg>
